<?xml version="1.0" encoding="utf-8"?>
<!-- Generator: Adobe Illustrator 23.0.1, SVG Export Plug-In . SVG Version: 6.00 Build 0)  -->
<svg version="1.1" id="Layer_1" xmlns="http://www.w3.org/2000/svg" xmlns:xlink="http://www.w3.org/1999/xlink" x="0px" y="0px"
	 viewBox="0 0 400.5 400" style="enable-background:new 0 0 400.5 400;" xml:space="preserve">
<style type="text/css">
	.st0{fill:none;stroke:#FFFFFF;stroke-width:13;stroke-miterlimit:10;}
	.st1{fill:#FFFFFF;}
	.st2{font-family:'LiquorstoreJazz';}
	.st3{font-size:153.2011px;}
	.st4{fill:none;stroke:#FFFFFF;stroke-miterlimit:10;}
	.st5{font-size:145.4965px;}
</style>
<image style="overflow:visible;enable-background:new    ;" width="162" height="138" xlink:href="6395BDA8BA2CCD8B.png"  transform="matrix(2.4691 0 0 2.8986 0.5369 0)">
</image>
<polygon class="st0" points="523.2,431.2 569.7,192.2 -183.3,-28.5 -229.8,210.5 "/>
<text transform="matrix(0.9012 0.2801 -0.2935 0.956 70.3167 171.9431)" class="st1 st2 st3">LOOT</text>
<text transform="matrix(0.9012 0.2801 -0.2935 0.956 70.3167 171.9431)" class="st4 st2 st3">LOOT</text>
<text transform="matrix(0.7318 0.2256 -0.2913 0.9566 39.103 271.6133)" class="st1 st2 st5">CRATE</text>
<text transform="matrix(0.7318 0.2256 -0.2913 0.9566 39.103 271.6133)" class="st4 st2 st5">CRATE</text>
<path class="st1" d="M53.8,159.2"/>
<polygon class="st0" points="-84.4,622.5 197.4,686.7 433.1,-61.8 151.4,-125.9 "/>
<image style="overflow:visible;enable-background:new    ;" width="162" height="138" xlink:href="6395BDA8BA2CCD89.png"  transform="matrix(1.5203 0 0 4.6725 -246.2913 -131.114)">
</image>
<image style="overflow:visible;enable-background:new    ;" width="162" height="138" xlink:href="6395BDA8BA2CCD8F.png"  transform="matrix(1.5203 0 0 4.6725 400.5369 -131.114)">
</image>
<image style="overflow:visible;enable-background:new    ;" width="162" height="138" xlink:href="6395BDA8BA2CCD88.png"  transform="matrix(3.3536 0 0 1.566 -71.3747 400)">
</image>
<image style="overflow:visible;enable-background:new    ;" width="162" height="138" xlink:href="6395BDA8BA2CCD86.png"  transform="matrix(3.4307 0 0 1.3507 -77.6219 -186.3977)">
</image>
</svg>
